<svg xmlns="http://www.w3.org/2000/svg" xmlns:xlink="http://www.w3.org/1999/xlink" width="1024" zoomAndPan="magnify" viewBox="0 0 768 767.999994" height="1024" preserveAspectRatio="xMidYMid meet" version="1.0"><path fill="#000000" d="M 77.386719 254.496094 C 77.386719 214.335938 90.472656 179.816406 119.578125 151.839844 C 171.242188 102.203125 255.398438 102.882812 305.710938 154.097656 C 329.175781 177.785156 342.035156 206.441406 340.90625 240.28125 C 340.230469 263.746094 332.785156 285.855469 324.4375 307.515625 C 312.253906 338.875 316.992188 367.753906 338.652344 393.25 C 384.902344 447.398438 352.863281 527.71875 284.953125 540.578125 C 257.203125 545.765625 232.160156 539.222656 209.371094 522.527344 C 177.558594 499.066406 153.871094 468.378906 134.015625 434.765625 C 110.328125 394.828125 92.953125 352.1875 84.15625 306.164062 C 80.996094 289.242188 79.644531 271.867188 77.386719 254.496094 Z M 164.925781 204.632812 C 164.699219 205.3125 164.476562 205.761719 164.25 206.441406 C 148.230469 205.535156 136.949219 212.980469 130.632812 227.648438 C 122.960938 245.246094 127.472656 261.039062 138.753906 275.253906 C 153.195312 293.527344 172.144531 306.164062 192.453125 316.539062 C 218.847656 329.851562 212.304688 331.65625 235.769531 312.027344 C 254.496094 296.234375 271.644531 278.863281 281.34375 255.847656 C 286.082031 245.019531 287.4375 233.738281 283.148438 222.234375 C 275.929688 202.378906 256.753906 191.097656 237.125 197.414062 C 227.875 200.347656 219.074219 206.441406 210.953125 212.304688 C 205.761719 215.914062 201.476562 217.042969 195.160156 214.5625 C 185.457031 210.726562 175.078125 207.792969 164.925781 204.632812 Z M 674.820312 493.199219 C 674.367188 525.234375 662.863281 554.113281 647.746094 581.414062 C 614.355469 641.65625 568.78125 690.613281 510.796875 728.066406 C 489.8125 741.828125 467.253906 752.433594 442.210938 757.621094 C 393.25 768 341.808594 733.253906 333.011719 684.070312 C 326.242188 645.714844 341.359375 611.195312 374.296875 590.890625 C 408.140625 570.132812 418.066406 539.222656 415.359375 501.320312 C 410.398438 430.25 446.722656 375.425781 519.820312 361.890625 C 591.34375 348.804688 661.28125 400.019531 672.789062 472.214844 C 673.917969 478.984375 674.144531 486.203125 674.820312 493.199219 Z M 624.507812 503.351562 C 624.28125 483.269531 615.03125 471.089844 595.175781 467.476562 C 585.703125 465.671875 575.546875 466.351562 565.621094 466.351562 C 560.207031 466.351562 556.597656 464.769531 553.664062 460.03125 C 549.378906 453.714844 545.089844 447.398438 539.675781 442.210938 C 530.199219 432.734375 518.691406 427.320312 504.703125 431.152344 C 481.691406 437.246094 468.605469 458.453125 472.667969 483.273438 C 477.632812 512.601562 491.394531 537.871094 508.316406 561.5625 C 510.34375 564.492188 515.535156 565.621094 519.597656 566.296875 C 522.304688 566.976562 525.460938 565.621094 528.394531 565.171875 C 550.957031 562.011719 573.292969 557.5 593.597656 546.445312 C 610.96875 537.417969 624.734375 525.234375 624.507812 503.351562 Z M 284.730469 8.800781 C 261.941406 22.789062 252.464844 55.726562 262.617188 82.800781 C 274.574219 114.386719 309.320312 122.058594 333.011719 97.917969 C 351.738281 78.964844 356.25 46.027344 342.488281 23.238281 C 334.589844 10.152344 323.535156 1.578125 306.613281 0 C 299.394531 3.160156 291.496094 4.964844 284.730469 8.800781 Z M 557.949219 263.070312 C 550.730469 229.902344 516.210938 216.367188 490.492188 236.671875 C 467.929688 254.496094 461.160156 291.269531 475.824219 316.089844 C 490.492188 340.679688 519.144531 345.195312 540.125 325.789062 C 553.4375 313.382812 559.53125 297.589844 559.753906 276.832031 C 559.304688 273.898438 559.078125 268.257812 557.949219 263.070312 Z M 185.457031 78.0625 C 195.835938 91.375 213.433594 93.855469 226.292969 83.703125 C 246.375 67.683594 244.792969 31.359375 223.585938 16.921875 C 212.078125 9.023438 197.640625 10.378906 187.714844 20.078125 C 179.589844 28.203125 175.980469 38.128906 175.753906 47.378906 C 175.753906 60.015625 178.914062 69.714844 185.457031 78.0625 Z M 574.421875 316.992188 C 575.773438 339.328125 596.757812 351.738281 617.0625 341.808594 C 634.433594 333.460938 644.363281 310.898438 639.398438 291.496094 C 634.210938 270.964844 613.679688 262.390625 595.628906 273.449219 C 581.1875 282.246094 574.644531 295.332031 574.421875 312.027344 C 574.421875 313.609375 574.421875 315.1875 574.421875 316.992188 Z M 152.066406 54.375 C 144.847656 46.027344 135.597656 41.289062 124.089844 43.542969 C 113.484375 45.574219 106.941406 52.570312 104.460938 62.496094 C 101.527344 75.128906 104.007812 87.089844 112.355469 97.464844 C 120.929688 108.070312 134.242188 113.035156 145.296875 108.972656 C 155.902344 105.136719 162.21875 94.757812 161.992188 80.09375 C 162.445312 70.617188 158.609375 61.820312 152.066406 54.375 Z M 639.625 355.796875 C 636.917969 375.652344 650.226562 389.867188 669.179688 387.160156 C 687.453125 384.453125 702.121094 366.851562 701.667969 348.351562 C 701.441406 333.460938 691.289062 323.535156 676.398438 323.535156 C 659.253906 323.761719 641.878906 338.652344 639.625 355.796875 Z M 735.960938 421.679688 C 744.085938 406.109375 734.15625 389.414062 716.558594 388.738281 C 704.375 388.285156 694.675781 393.25 687.230469 402.5 C 681.136719 410.171875 678.65625 418.96875 683.621094 428.222656 C 688.132812 436.792969 695.578125 440.628906 704.601562 440.179688 C 718.363281 440.179688 730.097656 433.183594 735.960938 421.679688 Z M 74.226562 146.652344 C 90.472656 150.9375 104.460938 140.109375 103.558594 124.539062 C 102.65625 109.425781 90.472656 95.886719 75.355469 93.179688 C 60.464844 90.699219 49.636719 99.722656 49.636719 114.839844 C 49.863281 129.503906 60.015625 143.042969 74.226562 146.652344 Z M 704.148438 464.320312 C 691.742188 477.40625 696.929688 495.679688 714.078125 500.417969 C 722.425781 502.898438 730.320312 501.773438 737.992188 497.9375 C 748.824219 492.523438 754.914062 481.917969 752.65625 471.992188 C 750.402344 461.835938 740.476562 454.84375 728.292969 454.84375 C 718.816406 454.84375 709.789062 458.453125 704.148438 464.320312 Z M 15.566406 176.433594 C 18.050781 190.421875 36.097656 203.054688 50.085938 200.574219 C 66.78125 197.414062 73.777344 182.523438 65.203125 167.859375 C 59.113281 157.03125 49.183594 151.839844 39.707031 151.390625 C 22.109375 151.390625 13.085938 161.765625 15.566406 176.433594 Z M 15.566406 176.433594 " fill-opacity="1" fill-rule="nonzero"/></svg>