<svg xmlns="http://www.w3.org/2000/svg" xmlns:xlink="http://www.w3.org/1999/xlink" width="1024" zoomAndPan="magnify" viewBox="0 0 768 767.999994" height="1024" preserveAspectRatio="xMidYMid meet" version="1.0"><rect x="-76.8" width="921.6" fill="none" y="-76.799999" height="921.599993" fill-opacity="1"/><rect x="-76.8" width="921.6" fill="#fffff" y="-76.799999" height="921.599993" fill-opacity="0"/><path fill="#fffff" d="M 667.558594 313.539062 C 666.84375 313.3125 666.117188 313.152344 665.375 313.066406 C 664.628906 312.980469 663.886719 312.964844 663.140625 313.019531 C 662.394531 313.078125 661.660156 313.207031 660.9375 313.40625 C 660.214844 313.605469 659.519531 313.871094 658.851562 314.203125 C 658.179688 314.539062 657.550781 314.933594 656.957031 315.390625 C 656.363281 315.847656 655.820312 316.355469 655.324219 316.917969 C 654.828125 317.480469 654.394531 318.085938 654.015625 318.730469 C 653.640625 319.378906 653.328125 320.054688 653.082031 320.761719 C 652.835938 321.46875 652.660156 322.191406 652.550781 322.933594 C 652.445312 323.675781 652.414062 324.421875 652.449219 325.167969 C 652.488281 325.914062 652.597656 326.652344 652.78125 327.378906 C 652.960938 328.105469 653.210938 328.808594 653.527344 329.488281 C 653.84375 330.164062 654.222656 330.804688 654.664062 331.410156 C 655.105469 332.015625 655.601562 332.574219 656.152344 333.082031 C 656.699219 333.589844 657.292969 334.039062 657.929688 334.433594 C 658.566406 334.828125 659.234375 335.15625 659.933594 335.421875 C 690.875 346.199219 710.082031 360.429688 710.082031 372.574219 C 710.082031 396.773438 635.15625 430.523438 513.160156 430.523438 C 391.160156 430.523438 316.234375 396.773438 316.234375 372.574219 C 316.234375 348.378906 391.160156 314.628906 513.160156 314.628906 C 513.917969 314.628906 514.671875 314.554688 515.417969 314.40625 C 516.164062 314.257812 516.886719 314.039062 517.589844 313.746094 C 518.292969 313.457031 518.960938 313.097656 519.59375 312.675781 C 520.226562 312.253906 520.8125 311.773438 521.347656 311.234375 C 521.886719 310.699219 522.367188 310.113281 522.789062 309.480469 C 523.210938 308.847656 523.570312 308.179688 523.859375 307.476562 C 524.152344 306.773438 524.371094 306.046875 524.519531 305.300781 C 524.667969 304.554688 524.742188 303.800781 524.742188 303.039062 C 524.742188 302.28125 524.667969 301.527344 524.519531 300.78125 C 524.371094 300.035156 524.152344 299.308594 523.859375 298.605469 C 523.570312 297.902344 523.210938 297.234375 522.789062 296.601562 C 522.367188 295.96875 521.886719 295.382812 521.347656 294.847656 C 520.8125 294.308594 520.226562 293.828125 519.59375 293.40625 C 518.960938 292.980469 518.292969 292.625 517.589844 292.332031 C 516.886719 292.042969 516.164062 291.824219 515.417969 291.675781 C 514.671875 291.527344 513.917969 291.453125 513.160156 291.453125 C 406.460938 291.453125 293.066406 319.878906 293.066406 372.574219 L 293.066406 418.933594 C 293.066406 471.628906 406.460938 500.054688 513.160156 500.054688 C 619.855469 500.054688 733.25 471.628906 733.25 418.933594 L 733.25 372.574219 C 733.25 356.074219 721.851562 332.441406 667.558594 313.539062 Z M 513.160156 476.878906 C 391.160156 476.878906 316.234375 443.128906 316.234375 418.933594 L 316.234375 410.367188 C 354.820312 438.714844 435.734375 453.699219 513.160156 453.699219 C 590.582031 453.699219 671.496094 438.714844 710.082031 410.367188 L 710.082031 418.933594 C 710.082031 443.128906 635.15625 476.878906 513.160156 476.878906 Z M 513.160156 476.878906 " fill-opacity="1" fill-rule="nonzero"/><path fill="#fffff" d="M 756.417969 511.644531 C 755.65625 511.644531 754.902344 511.71875 754.15625 511.867188 C 753.410156 512.015625 752.6875 512.238281 751.984375 512.527344 C 751.28125 512.820312 750.613281 513.175781 749.980469 513.597656 C 749.347656 514.023438 748.761719 514.503906 748.226562 515.039062 C 747.6875 515.578125 747.207031 516.164062 746.785156 516.796875 C 746.363281 517.429688 746.003906 518.097656 745.714844 518.800781 C 745.421875 519.503906 745.203125 520.226562 745.054688 520.972656 C 744.90625 521.71875 744.832031 522.472656 744.832031 523.234375 C 744.832031 546.867188 654.582031 581.179688 513.160156 581.179688 C 512.398438 581.179688 511.644531 581.253906 510.898438 581.402344 C 510.152344 581.550781 509.429688 581.773438 508.726562 582.0625 C 508.023438 582.355469 507.355469 582.710938 506.722656 583.132812 C 506.089844 583.554688 505.503906 584.035156 504.96875 584.574219 C 504.429688 585.113281 503.949219 585.699219 503.527344 586.332031 C 503.105469 586.964844 502.746094 587.632812 502.457031 588.335938 C 502.164062 589.039062 501.945312 589.761719 501.796875 590.507812 C 501.648438 591.253906 501.574219 592.007812 501.574219 592.769531 L 501.574219 673.894531 C 501.574219 674.65625 501.648438 675.410156 501.796875 676.15625 C 501.945312 676.902344 502.164062 677.625 502.457031 678.328125 C 502.746094 679.03125 503.105469 679.699219 503.527344 680.332031 C 503.949219 680.964844 504.429688 681.550781 504.96875 682.089844 C 505.503906 682.625 506.089844 683.105469 506.722656 683.53125 C 507.355469 683.953125 508.023438 684.308594 508.726562 684.601562 C 509.429688 684.890625 510.152344 685.113281 510.898438 685.261719 C 511.644531 685.410156 512.398438 685.484375 513.160156 685.484375 C 639.804688 685.484375 768 657.667969 768 604.359375 L 768 523.234375 C 768 522.472656 767.925781 521.71875 767.777344 520.972656 C 767.628906 520.226562 767.410156 519.503906 767.117188 518.800781 C 766.828125 518.097656 766.46875 517.429688 766.046875 516.796875 C 765.625 516.164062 765.144531 515.578125 764.605469 515.039062 C 764.070312 514.503906 763.484375 514.023438 762.851562 513.597656 C 762.21875 513.175781 761.550781 512.820312 760.847656 512.527344 C 760.144531 512.238281 759.421875 512.015625 758.675781 511.867188 C 757.929688 511.71875 757.175781 511.644531 756.417969 511.644531 Z M 744.832031 604.359375 C 744.832031 627.328125 659.496094 660.414062 524.742188 662.222656 L 524.742188 604.277344 C 614.96875 603.117188 704.011719 587.738281 744.832031 559.207031 Z M 744.832031 604.359375 " fill-opacity="1" fill-rule="nonzero"/><path fill="#fffff" d="M 726.632812 418.933594 C 725.949219 418.605469 725.234375 418.351562 724.496094 418.167969 C 723.761719 417.980469 723.011719 417.871094 722.253906 417.832031 C 721.496094 417.796875 720.738281 417.832031 719.988281 417.941406 C 719.234375 418.054688 718.5 418.238281 717.785156 418.492188 C 717.070312 418.75 716.386719 419.070312 715.734375 419.460938 C 715.082031 419.851562 714.472656 420.300781 713.910156 420.8125 C 713.34375 421.320312 712.835938 421.882812 712.382812 422.492188 C 711.929688 423.101562 711.539062 423.75 711.210938 424.4375 C 710.886719 425.125 710.628906 425.835938 710.445312 426.574219 C 710.257812 427.3125 710.148438 428.058594 710.109375 428.820312 C 710.070312 429.578125 710.105469 430.335938 710.214844 431.085938 C 710.324219 431.839844 710.507812 432.574219 710.761719 433.292969 C 711.015625 434.007812 711.339844 434.691406 711.726562 435.34375 C 712.117188 436 712.566406 436.609375 713.074219 437.171875 C 713.582031 437.738281 714.144531 438.246094 714.753906 438.703125 C 715.363281 439.15625 716.007812 439.546875 716.695312 439.875 C 734.316406 448.289062 744.832031 457.769531 744.832031 465.289062 C 744.832031 488.917969 654.582031 523.234375 513.160156 523.234375 C 371.734375 523.234375 281.484375 488.917969 281.484375 465.289062 C 281.484375 457.769531 292.003906 448.289062 309.621094 439.921875 C 310.308594 439.59375 310.957031 439.203125 311.566406 438.746094 C 312.179688 438.292969 312.738281 437.78125 313.25 437.214844 C 313.757812 436.652344 314.210938 436.042969 314.597656 435.386719 C 314.988281 434.734375 315.3125 434.046875 315.566406 433.332031 C 315.824219 432.613281 316.007812 431.878906 316.117188 431.125 C 316.226562 430.371094 316.265625 429.613281 316.226562 428.851562 C 316.1875 428.09375 316.074219 427.34375 315.890625 426.605469 C 315.703125 425.863281 315.449219 425.152344 315.121094 424.464844 C 314.796875 423.773438 314.40625 423.125 313.953125 422.511719 C 313.5 421.902344 312.992188 421.339844 312.425781 420.828125 C 311.863281 420.316406 311.253906 419.867188 310.601562 419.476562 C 309.949219 419.082031 309.261719 418.757812 308.546875 418.503906 C 307.828125 418.246094 307.09375 418.0625 306.339844 417.949219 C 305.589844 417.835938 304.832031 417.800781 304.070312 417.835938 C 303.3125 417.875 302.5625 417.984375 301.824219 418.167969 C 301.085938 418.351562 300.371094 418.609375 299.683594 418.933594 C 272.21875 432.003906 258.316406 447.59375 258.316406 465.289062 L 258.316406 662.304688 C 258.316406 715.613281 386.511719 743.429688 513.160156 743.429688 C 639.804688 743.429688 768 715.613281 768 662.304688 L 768 465.289062 C 768 447.59375 754.097656 432.003906 726.632812 418.933594 Z M 513.160156 720.25 C 371.734375 720.25 281.484375 685.933594 281.484375 662.304688 L 281.484375 501.214844 C 324.042969 531 419.007812 546.414062 513.160156 546.414062 C 607.3125 546.414062 702.273438 531 744.832031 501.214844 L 744.832031 662.304688 C 744.832031 685.933594 654.582031 720.25 513.160156 720.25 Z M 513.160156 720.25 " fill-opacity="1" fill-rule="nonzero"/><path fill="#fffff" d="M 433.542969 77.109375 L 393.105469 35.457031 C 391.242188 33.65625 389.214844 32.0625 387.023438 30.675781 C 384.832031 29.292969 382.523438 28.144531 380.097656 27.238281 C 377.667969 26.328125 375.171875 25.675781 372.613281 25.285156 C 370.050781 24.890625 367.476562 24.761719 364.886719 24.902344 C 319.871094 24.902344 236.769531 79.371094 158.058594 160.414062 C 69.78125 251.363281 -0.253906 363.375 36.753906 401.492188 L 77.195312 443.140625 C 79.054688 444.945312 81.082031 446.539062 83.273438 447.925781 C 85.464844 449.308594 87.773438 450.457031 90.203125 451.363281 C 92.628906 452.273438 95.125 452.921875 97.6875 453.316406 C 100.25 453.710938 102.824219 453.839844 105.410156 453.699219 C 150.425781 453.699219 233.527344 399.230469 312.226562 318.1875 C 400.519531 227.234375 470.554688 115.226562 433.542969 77.109375 Z M 174.695312 176.566406 C 256.613281 92.210938 332.453125 48.078125 364.886719 48.078125 C 366.976562 47.871094 369.023438 48.074219 371.03125 48.6875 C 373.039062 49.300781 374.851562 50.277344 376.46875 51.613281 C 393.464844 69.101562 355.539062 156.996094 255.164062 260.382812 C 173.246094 344.761719 97.464844 388.871094 64.949219 388.871094 C 62.867188 389.082031 60.820312 388.886719 58.8125 388.285156 C 56.804688 387.679688 54.992188 386.71875 53.367188 385.394531 C 36.394531 367.800781 74.34375 279.933594 174.695312 176.566406 Z M 295.605469 302.03125 C 213.683594 386.390625 137.902344 430.523438 105.410156 430.523438 C 103.328125 430.734375 101.28125 430.542969 99.273438 429.941406 C 97.265625 429.335938 95.449219 428.371094 93.828125 427.042969 L 77.933594 410.625 C 124.816406 402 200.074219 350.359375 271.777344 276.523438 C 337.445312 208.878906 392.929688 129.644531 401.875 77.757812 L 416.933594 93.265625 C 433.914062 110.765625 395.976562 198.644531 295.605469 302.03125 Z M 295.605469 302.03125 " fill-opacity="1" fill-rule="nonzero"/><path fill="#fffff" d="M 640.578125 384.164062 C 639.820312 384.164062 639.066406 384.089844 638.320312 383.941406 C 637.574219 383.792969 636.847656 383.574219 636.144531 383.28125 C 635.445312 382.992188 634.777344 382.632812 634.144531 382.210938 C 633.511719 381.789062 632.925781 381.308594 632.386719 380.769531 C 631.851562 380.234375 631.371094 379.648438 630.949219 379.015625 C 630.523438 378.382812 630.167969 377.714844 629.878906 377.011719 C 629.585938 376.308594 629.367188 375.582031 629.21875 374.835938 C 629.070312 374.089844 628.996094 373.335938 628.996094 372.574219 C 628.953125 368.527344 628.695312 364.492188 628.21875 360.472656 C 627.746094 356.453125 627.054688 352.46875 626.152344 348.523438 C 625.246094 344.578125 624.132812 340.691406 622.8125 336.867188 C 621.492188 333.039062 619.96875 329.296875 618.242188 325.632812 C 616.519531 321.972656 614.601562 318.414062 612.492188 314.957031 C 610.386719 311.5 608.097656 308.167969 605.632812 304.960938 C 603.167969 301.75 600.535156 298.683594 597.738281 295.757812 C 594.941406 292.828125 592 290.0625 588.902344 287.453125 C 573.949219 316.554688 529.375 349.398438 478.40625 349.398438 C 474.566406 349.386719 470.730469 349.550781 466.902344 349.882812 C 463.074219 350.214844 459.269531 350.71875 455.488281 351.394531 C 451.703125 352.070312 447.960938 352.910156 444.253906 353.921875 C 440.542969 354.929688 436.890625 356.105469 433.289062 357.441406 C 429.6875 358.777344 426.152344 360.273438 422.683594 361.929688 C 419.214844 363.582031 415.828125 365.390625 412.519531 367.347656 C 409.214844 369.304688 406 371.40625 402.882812 373.652344 C 399.761719 375.898438 396.75 378.277344 393.847656 380.792969 C 393.304688 381.316406 392.71875 381.78125 392.085938 382.1875 C 391.453125 382.59375 390.789062 382.9375 390.089844 383.214844 C 389.390625 383.492188 388.671875 383.703125 387.929688 383.839844 C 387.191406 383.976562 386.445312 384.042969 385.691406 384.035156 C 384.941406 384.027344 384.195312 383.945312 383.460938 383.792969 C 382.722656 383.640625 382.007812 383.417969 381.316406 383.128906 C 380.621094 382.835938 379.964844 382.480469 379.339844 382.058594 C 378.714844 381.636719 378.136719 381.160156 377.605469 380.628906 C 377.078125 380.097656 376.601562 379.515625 376.183594 378.890625 C 375.765625 378.265625 375.410156 377.605469 375.121094 376.910156 C 374.832031 376.21875 374.609375 375.5 374.460938 374.765625 C 374.308594 374.027344 374.230469 373.28125 374.226562 372.53125 C 374.222656 371.777344 374.289062 371.03125 374.429688 370.292969 C 374.566406 369.550781 374.777344 368.832031 375.058594 368.136719 C 375.335938 367.4375 375.683594 366.769531 376.089844 366.140625 C 376.5 365.507812 376.964844 364.921875 377.488281 364.382812 C 380.917969 361.3125 384.480469 358.40625 388.179688 355.664062 C 391.875 352.921875 395.691406 350.355469 399.625 347.96875 C 403.558594 345.578125 407.59375 343.375 411.730469 341.359375 C 415.867188 339.339844 420.089844 337.519531 424.394531 335.890625 C 428.699219 334.261719 433.066406 332.835938 437.503906 331.609375 C 441.941406 330.386719 446.421875 329.367188 450.953125 328.558594 C 455.484375 327.746094 460.042969 327.144531 464.625 326.753906 C 469.210938 326.363281 473.804688 326.1875 478.40625 326.21875 C 532.628906 326.21875 571.078125 282.273438 571.078125 268.273438 C 571.078125 267.246094 571.210938 266.238281 571.480469 265.25 C 571.746094 264.261719 572.136719 263.320312 572.65625 262.4375 C 573.171875 261.550781 573.792969 260.746094 574.523438 260.027344 C 575.253906 259.304688 576.066406 258.695312 576.957031 258.1875 C 577.847656 257.683594 578.792969 257.304688 579.785156 257.050781 C 580.777344 256.792969 581.789062 256.675781 582.8125 256.6875 C 583.835938 256.699219 584.84375 256.847656 585.828125 257.128906 C 586.816406 257.410156 587.746094 257.8125 588.625 258.339844 C 591.007812 259.878906 593.339844 261.492188 595.621094 263.171875 C 597.902344 264.855469 600.132812 266.605469 602.308594 268.425781 C 604.484375 270.242188 606.601562 272.125 608.660156 274.074219 C 610.722656 276.023438 612.722656 278.03125 614.660156 280.101562 C 616.597656 282.171875 618.46875 284.300781 620.277344 286.484375 C 622.082031 288.671875 623.820312 290.910156 625.492188 293.199219 C 627.164062 295.492188 628.761719 297.832031 630.289062 300.222656 C 631.816406 302.613281 633.269531 305.046875 634.648438 307.523438 C 636.027344 310.003906 637.328125 312.519531 638.550781 315.078125 C 639.777344 317.636719 640.921875 320.230469 641.988281 322.859375 C 643.054688 325.484375 644.039062 328.144531 644.941406 330.832031 C 645.84375 333.519531 646.664062 336.234375 647.402344 338.972656 C 648.140625 341.710938 648.792969 344.46875 649.359375 347.25 C 649.929688 350.027344 650.414062 352.820312 650.8125 355.628906 C 651.207031 358.4375 651.519531 361.253906 651.746094 364.082031 C 651.972656 366.910156 652.109375 369.738281 652.164062 372.574219 C 652.164062 373.335938 652.089844 374.089844 651.941406 374.835938 C 651.792969 375.582031 651.570312 376.308594 651.28125 377.011719 C 650.988281 377.714844 650.632812 378.382812 650.210938 379.015625 C 649.789062 379.648438 649.308594 380.234375 648.769531 380.769531 C 648.230469 381.308594 647.648438 381.789062 647.015625 382.210938 C 646.382812 382.632812 645.714844 382.992188 645.011719 383.28125 C 644.308594 383.574219 643.585938 383.792969 642.839844 383.941406 C 642.09375 384.089844 641.339844 384.164062 640.578125 384.164062 Z M 640.578125 384.164062 " fill-opacity="1" fill-rule="nonzero"/></svg>