<svg xmlns="http://www.w3.org/2000/svg" xmlns:xlink="http://www.w3.org/1999/xlink" width="500" zoomAndPan="magnify" viewBox="0 0 375 374.999991" height="500" preserveAspectRatio="xMidYMid meet" version="1.0"><defs><clipPath id="3b041b37cd"><path d="M 93.75 0 L 375 0 L 375 375 L 93.75 375 Z M 93.75 0 " clip-rule="nonzero"/></clipPath><clipPath id="fdb89fed72"><path d="M 36 120 L 83 120 L 83 357.679688 L 36 357.679688 Z M 36 120 " clip-rule="nonzero"/></clipPath><clipPath id="aebfe3ac9d"><path d="M 0 17.179688 L 119.996094 17.179688 L 119.996094 122 L 0 122 Z M 0 17.179688 " clip-rule="nonzero"/></clipPath></defs><g clip-path="url(#3b041b37cd)"><path fill="#e5017d" d="M 100.703125 202.34375 L 130.710938 202.34375 C 130.410156 197.472656 130.28125 192.523438 130.28125 187.5 C 130.28125 181.953125 130.449219 176.515625 130.769531 171.15625 L 93.75 171.15625 L 100.703125 139.292969 L 134.703125 139.292969 C 150.992188 54.328125 211.175781 0.0664062 294.621094 0.0664062 C 323.789062 0.0664062 351.207031 8.78125 374.992188 24.058594 L 366.316406 63.871094 C 345.921875 47.261719 321.21875 37.554688 294.621094 37.554688 C 222.40625 37.554688 186.136719 85.589844 173.316406 139.292969 L 349.875 139.292969 L 342.925781 171.15625 L 168.386719 171.15625 C 167.972656 176.648438 167.769531 182.101562 167.769531 187.5 C 167.769531 192.449219 167.9375 197.414062 168.292969 202.34375 L 336.121094 202.34375 L 329.183594 234.207031 L 173.109375 234.207031 C 186.511719 290.609375 225.515625 337.445312 294.621094 337.445312 C 320.449219 337.445312 344.515625 328.261719 364.570312 312.519531 L 364.570312 357.070312 C 343.335938 368.523438 319.625 374.933594 294.621094 374.933594 C 212.1875 374.933594 150.9375 319.003906 134.609375 234.207031 L 93.75 234.207031 L 100.703125 202.34375 " fill-opacity="1" fill-rule="nonzero"/></g><g clip-path="url(#fdb89fed72)"><path fill="#e5017d" d="M 36.835938 357.679688 L 36.835938 120.09375 L 82.992188 120.09375 L 82.992188 357.679688 Z M 36.835938 357.679688 " fill-opacity="1" fill-rule="nonzero"/></g><g clip-path="url(#aebfe3ac9d)"><path fill="#e5017d" d="M 119.816406 121.355469 L 0.015625 120.914062 L 60.296875 17.320312 Z M 119.816406 121.355469 " fill-opacity="1" fill-rule="evenodd"/></g></svg>