<svg xmlns="http://www.w3.org/2000/svg" xmlns:xlink="http://www.w3.org/1999/xlink" width="1024" zoomAndPan="magnify" viewBox="0 0 768 767.999994" height="1024" preserveAspectRatio="xMidYMid meet" version="1.0"><path fill="#000000" d="M 296.726562 663.273438 C 119.25 663.273438 0 558.058594 0 401.453125 C 0 280.738281 73.132812 0 750.546875 0 C 757.597656 0 763.984375 4.257812 766.671875 10.785156 C 769.394531 17.316406 767.894531 24.820312 762.902344 29.8125 C 701.671875 91.078125 627.003906 181.144531 593.070312 335.40625 C 567.832031 449.976562 520.878906 663.273438 296.726562 663.273438 Z M 709.351562 35.257812 C 101.65625 45.941406 34.910156 293.621094 34.910156 401.453125 C 34.910156 537.179688 140.125 628.363281 296.726562 628.363281 C 477.695312 628.363281 526.953125 473.261719 558.964844 327.902344 C 589.613281 188.4375 651.648438 98.757812 709.351562 35.257812 Z M 709.351562 35.257812 " fill-opacity="1" fill-rule="nonzero"/><path fill="#000000" d="M 17.453125 768 C 7.820312 768 0 760.179688 0 750.546875 C 0 646.761719 179.957031 313.761719 463.664062 176.289062 C 472.320312 172.136719 482.757812 175.730469 486.980469 184.390625 C 491.171875 193.046875 487.539062 203.484375 478.882812 207.710938 C 192.382812 346.542969 34.910156 668.960938 34.910156 750.546875 C 34.910156 760.179688 27.089844 768 17.453125 768 Z M 17.453125 768 " fill-opacity="1" fill-rule="nonzero"/></svg>