<?xml version="1.0" encoding="iso-8859-1"?>
<!-- Uploaded to: SVG Repo, www.svgrepo.com, Generator: SVG Repo Mixer Tools -->
<svg fill="#000000" height="800px" width="800px" version="1.1" id="Layer_1" xmlns="http://www.w3.org/2000/svg" xmlns:xlink="http://www.w3.org/1999/xlink" 
	 viewBox="0 0 511.999 511.999" xml:space="preserve">
<g>
	<g>
		<path d="M150.906,254.753H78.821c-6.54,0-11.842,5.302-11.842,11.842s5.301,11.842,11.842,11.842h72.085
			c6.54,0,11.842-5.302,11.842-11.842S157.446,254.753,150.906,254.753z"/>
	</g>
</g>
<g>
	<g>
		<path d="M198.045,264.277c-0.154-0.758-0.379-1.492-0.675-2.214c-0.296-0.711-0.663-1.397-1.089-2.037
			c-0.438-0.651-0.935-1.255-1.48-1.8c-0.545-0.545-1.149-1.042-1.8-1.48c-0.639-0.426-1.326-0.793-2.037-1.089
			c-0.722-0.296-1.468-0.521-2.214-0.675c-1.528-0.308-3.103-0.308-4.63,0c-0.758,0.154-1.504,0.379-2.214,0.675
			c-0.722,0.296-1.409,0.663-2.049,1.089c-0.651,0.438-1.255,0.935-1.8,1.48c-0.545,0.545-1.042,1.149-1.468,1.8
			c-0.426,0.639-0.793,1.326-1.089,2.037c-0.296,0.722-0.521,1.456-0.675,2.214c-0.154,0.77-0.237,1.539-0.237,2.321
			c0,0.77,0.083,1.551,0.237,2.309c0.154,0.758,0.379,1.504,0.675,2.214c0.296,0.722,0.663,1.409,1.089,2.049
			c0.426,0.651,0.924,1.255,1.468,1.8c0.545,0.545,1.149,1.042,1.8,1.468c0.639,0.426,1.326,0.793,2.049,1.089
			c0.711,0.296,1.457,0.521,2.214,0.675c0.758,0.154,1.539,0.237,2.309,0.237s1.551-0.083,2.321-0.237
			c0.746-0.154,1.492-0.379,2.214-0.675c0.711-0.296,1.397-0.663,2.037-1.089c0.651-0.426,1.255-0.924,1.8-1.468
			c0.545-0.545,1.042-1.149,1.48-1.8c0.426-0.639,0.793-1.326,1.089-2.049c0.296-0.711,0.521-1.456,0.675-2.214
			s0.225-1.539,0.225-2.309C198.27,265.816,198.199,265.047,198.045,264.277z"/>
	</g>
</g>
<g>
	<g>
		<path d="M186.431,311h-72.085c-6.54,0-11.842,5.301-11.842,11.842c0,6.54,5.301,11.842,11.842,11.842h72.085
			c6.54,0,11.842-5.302,11.842-11.842C198.272,316.302,192.971,311,186.431,311z"/>
	</g>
</g>
<g>
	<g>
		<path d="M87.196,314.473c-0.545-0.545-1.149-1.042-1.8-1.48c-0.639-0.426-1.326-0.793-2.049-1.089
			c-0.711-0.296-1.457-0.521-2.214-0.675c-1.528-0.308-3.102-0.308-4.63,0c-0.746,0.154-1.492,0.379-2.214,0.675
			c-0.711,0.296-1.397,0.663-2.037,1.089c-0.651,0.438-1.255,0.935-1.8,1.48c-0.545,0.545-1.042,1.149-1.48,1.8
			c-0.426,0.639-0.793,1.326-1.089,2.037c-0.296,0.722-0.521,1.456-0.675,2.214c-0.142,0.77-0.225,1.539-0.225,2.321
			c0,0.77,0.083,1.551,0.225,2.309c0.154,0.758,0.379,1.504,0.675,2.214s0.663,1.409,1.089,2.049c0.438,0.651,0.935,1.255,1.48,1.8
			c0.545,0.545,1.149,1.042,1.8,1.468c0.639,0.426,1.326,0.793,2.037,1.089c0.722,0.296,1.468,0.521,2.214,0.675
			c0.77,0.154,1.551,0.237,2.321,0.237s1.551-0.083,2.309-0.237s1.504-0.379,2.214-0.675c0.722-0.296,1.409-0.663,2.049-1.089
			c0.651-0.426,1.255-0.924,1.8-1.468c0.545-0.545,1.042-1.149,1.468-1.8c0.426-0.639,0.793-1.338,1.089-2.049
			c0.296-0.711,0.521-1.456,0.675-2.214c0.154-0.758,0.237-1.539,0.237-2.309C90.665,319.719,89.398,316.676,87.196,314.473z"/>
	</g>
</g>
<g>
	<g>
		<path d="M483.958,305.745l-64.024-36.964c-12.978-7.493-28.098-9.484-42.575-5.605c-4.6,1.233-8.958,3.016-13.007,5.285V161.267
			h19.316c6.54,0,11.842-5.302,11.842-11.842V54.693c0-6.54-5.302-11.842-11.842-11.842H11.842C5.302,42.851,0,48.152,0,54.693
			v94.733c0,6.54,5.302,11.842,11.842,11.842h19.316v49.619v167.665v78.756c0,6.54,5.302,11.842,11.842,11.842H303.86h73.928
			c30.937,0,56.107-25.169,56.107-56.107c0-2.486-0.18-4.93-0.494-7.33c7.123,3.136,14.723,4.756,22.411,4.756
			c4.873,0,9.78-0.641,14.613-1.936c14.476-3.878,26.575-13.163,34.068-26.141C519.962,355.597,510.75,321.215,483.958,305.745z
			 M308.474,66.534h63.353v71.05H352.51h-44.036V66.534z M209.596,66.534h75.194v71.05h-75.194V66.534z M110.719,66.534h75.194
			v71.05h-75.194V66.534z M23.683,137.584v-71.05h63.353v71.05H42.999H23.683z M54.841,222.727h166.597v143.982H54.841V222.727z
			 M247.82,415.661c0.012,0.268,0.032,0.533,0.047,0.799c0.037,0.615,0.083,1.227,0.14,1.837c0.027,0.287,0.055,0.574,0.085,0.86
			c0.071,0.648,0.154,1.292,0.246,1.933c0.031,0.21,0.056,0.42,0.088,0.63c0.13,0.84,0.279,1.672,0.448,2.499
			c0.038,0.187,0.083,0.372,0.123,0.558c0.137,0.644,0.285,1.285,0.444,1.921c0.069,0.271,0.14,0.541,0.212,0.811
			c0.153,0.572,0.315,1.14,0.486,1.706c0.076,0.252,0.15,0.506,0.23,0.757c0.232,0.729,0.476,1.454,0.737,2.171
			c0.024,0.065,0.044,0.131,0.068,0.195c0.287,0.778,0.593,1.547,0.912,2.309c0.096,0.23,0.199,0.456,0.298,0.684
			c0.236,0.542,0.478,1.08,0.731,1.613c0.12,0.252,0.239,0.503,0.362,0.753c0.268,0.545,0.546,1.085,0.83,1.619
			c0.105,0.198,0.207,0.399,0.315,0.596c0.392,0.716,0.798,1.423,1.221,2.121c0.086,0.142,0.178,0.281,0.265,0.423
			c0.346,0.559,0.7,1.112,1.065,1.658c0.15,0.225,0.304,0.446,0.457,0.669c0.156,0.227,0.307,0.458,0.467,0.683H54.841v-55.072
			H233.28c6.54,0,11.842-5.301,11.842-11.842V210.886c0-6.54-5.301-11.842-11.842-11.842H54.841v-37.777h285.828v133.179
			c-2.465,5.496-3.957,11.227-4.563,16.983c-0.006,0.051-0.009,0.102-0.015,0.153c-0.091,0.892-0.161,1.784-0.21,2.677
			c-0.006,0.112-0.012,0.224-0.017,0.336c-0.039,0.819-0.06,1.639-0.064,2.457c-0.001,0.185-0.001,0.368-0.001,0.553
			c0.005,0.733,0.024,1.465,0.057,2.197c0.012,0.263,0.021,0.526,0.037,0.787c0.038,0.636,0.09,1.269,0.149,1.903
			c0.032,0.348,0.06,0.695,0.099,1.042c0.058,0.521,0.131,1.041,0.204,1.56c0.062,0.446,0.12,0.894,0.193,1.339
			c0.059,0.359,0.131,0.715,0.198,1.073c0.728,3.972,1.885,7.881,3.474,11.656c0.066,0.159,0.13,0.32,0.198,0.478
			c0.09,0.208,0.167,0.42,0.26,0.628v16.666H303.86c-30.937,0-56.107,25.169-56.107,56.107
			C247.754,413.919,247.78,414.792,247.82,415.661z M377.789,445.465H303.86c-17.878,0-32.423-14.545-32.423-32.424
			s14.545-32.424,32.423-32.424h48.65h25.278c17.878,0,32.424,14.545,32.424,32.424S395.667,445.465,377.789,445.465z
			 M483.984,370.547c-4.331,7.5-11.323,12.866-19.688,15.107c-8.365,2.24-17.104,1.091-24.603-3.239l-64.024-36.964
			c-5.702-3.292-10.02-8.069-12.762-13.561c-0.165-0.329-0.32-0.661-0.472-0.995c-0.096-0.21-0.195-0.417-0.287-0.628
			c-0.223-0.515-0.433-1.035-0.629-1.558c-0.068-0.182-0.127-0.369-0.192-0.553c-0.133-0.375-0.262-0.752-0.379-1.131
			c-0.069-0.221-0.131-0.444-0.195-0.667c-0.104-0.36-0.202-0.721-0.294-1.085c-0.052-0.207-0.103-0.414-0.152-0.623
			c-0.098-0.429-0.188-0.86-0.269-1.291c-0.026-0.137-0.056-0.275-0.079-0.412c-0.212-1.216-0.358-2.441-0.43-3.669
			c-0.001-0.023-0.002-0.045-0.004-0.068c-0.034-0.6-0.052-1.201-0.053-1.802c0-0.04,0-0.082,0-0.122
			c0.004-2.516,0.298-5.031,0.886-7.49c0.005-0.018,0.009-0.036,0.013-0.053c0.136-0.564,0.289-1.124,0.456-1.682
			c0.028-0.094,0.057-0.187,0.085-0.281c0.15-0.489,0.315-0.975,0.49-1.457c0.041-0.115,0.082-0.231,0.124-0.346
			c0.186-0.497,0.387-0.99,0.599-1.479c0.034-0.078,0.064-0.157,0.098-0.234c0.255-0.576,0.525-1.145,0.815-1.708
			c0.001-0.002,0.002-0.005,0.004-0.007c0.242-0.469,0.493-0.934,0.759-1.395c4.331-7.5,11.323-12.866,19.688-15.108
			c2.793-0.748,5.628-1.119,8.444-1.119c5.619,0,11.163,1.474,16.159,4.358l64.024,36.964
			C487.599,335.195,492.923,355.064,483.984,370.547z"/>
	</g>
</g>
</svg>