<svg xmlns="http://www.w3.org/2000/svg" xmlns:xlink="http://www.w3.org/1999/xlink" width="1024" zoomAndPan="magnify" viewBox="0 0 768 767.999994" height="1024" preserveAspectRatio="xMidYMid meet" version="1.0"><defs><clipPath id="ae2372e03e"><path d="M 29 81.121094 L 739 81.121094 L 739 687.121094 L 29 687.121094 Z M 29 81.121094 " clip-rule="nonzero"/></clipPath></defs><g clip-path="url(#ae2372e03e)"><path fill="#000000" d="M 606.589844 87.765625 C 589.976562 83.335938 572.261719 81.121094 555.09375 81.121094 C 516.890625 81.121094 479.238281 92.199219 447.121094 111.585938 C 437.15625 118.234375 384 164.761719 384 175.289062 C 384 164.761719 330.84375 118.234375 320.878906 112.140625 C 288.761719 92.199219 251.109375 81.675781 212.90625 81.675781 C 195.738281 81.675781 178.574219 83.890625 161.410156 88.320312 C 56.207031 117.125 1.390625 257.824219 44.578125 354.207031 C 58.976562 386.890625 89.980469 430.097656 119.882812 449.484375 C 119.882812 449.484375 384 623.972656 384 687.121094 C 384 671.609375 399.503906 650.007812 422.757812 626.1875 C 420.542969 621.203125 419.4375 615.664062 419.4375 610.125 L 419.4375 596.828125 C 403.933594 611.785156 392.304688 624.527344 384 635.605469 C 364.621094 610.675781 329.738281 576.332031 267.167969 527.589844 C 201.832031 476.625 135.386719 432.3125 132.0625 430.648438 C 105.484375 413.476562 77.800781 373.59375 65.066406 344.789062 C 46.238281 302.691406 48.453125 246.191406 71.15625 197.445312 C 92.195312 152.578125 127.082031 121.003906 166.949219 109.925781 C 181.34375 106.046875 196.847656 103.832031 212.351562 103.832031 C 245.574219 103.832031 279.902344 113.246094 308.140625 130.972656 C 317 136.511719 354.101562 169.75 361.296875 180.828125 C 364.066406 190.796875 372.925781 197.445312 383.445312 197.445312 C 393.964844 197.445312 402.824219 190.246094 405.59375 180.828125 C 413.347656 169.75 450.445312 136.511719 458.75 130.972656 C 486.988281 113.246094 521.320312 103.832031 554.542969 103.832031 C 570.046875 103.832031 584.996094 106.046875 599.945312 109.925781 C 639.8125 121.003906 674.695312 153.132812 695.734375 197.445312 C 718.4375 246.191406 721.207031 302.691406 701.828125 344.789062 C 698.503906 352.546875 694.074219 360.855469 688.539062 369.164062 C 695.183594 373.59375 700.71875 379.6875 704.59375 386.890625 C 711.792969 375.8125 717.882812 364.179688 722.867188 354.207031 C 766.609375 257.824219 711.792969 117.125 606.589844 87.765625 Z M 606.589844 87.765625 " fill-opacity="1" fill-rule="nonzero"/></g><path fill="#000000" d="M 555.648438 298.261719 L 555.648438 385.226562 C 555.648438 397.96875 564.507812 406.832031 577.242188 406.832031 L 664.175781 406.832031 L 664.175781 498.230469 L 577.242188 498.230469 C 564.507812 498.230469 555.648438 507.09375 555.648438 519.832031 L 555.648438 606.800781 L 464.289062 606.800781 L 464.289062 520.386719 C 464.289062 507.644531 455.429688 498.785156 442.691406 498.785156 L 355.207031 498.785156 L 355.207031 406.832031 L 442.140625 406.832031 C 454.875 406.832031 463.734375 397.96875 463.734375 385.226562 L 463.734375 298.261719 L 553.988281 298.261719 M 557.308594 275.550781 L 462.074219 275.550781 C 451 275.550781 442.140625 284.414062 442.140625 295.492188 L 442.140625 385.226562 L 352.4375 385.226562 C 341.363281 385.226562 332.503906 394.089844 332.503906 405.167969 L 332.503906 500.445312 C 332.503906 511.523438 341.363281 520.386719 352.4375 520.386719 L 442.140625 520.386719 L 442.140625 610.125 C 442.140625 621.203125 451 630.066406 462.074219 630.066406 L 556.757812 630.066406 C 567.832031 630.066406 576.691406 621.203125 576.691406 610.125 L 576.691406 520.386719 L 666.390625 520.386719 C 677.464844 520.386719 686.324219 511.523438 686.324219 500.445312 L 686.324219 405.167969 C 686.324219 394.089844 677.464844 385.226562 666.390625 385.226562 L 577.242188 385.226562 L 577.242188 295.492188 C 577.242188 284.414062 568.382812 275.550781 557.308594 275.550781 Z M 557.308594 275.550781 " fill-opacity="1" fill-rule="nonzero"/></svg>